# xmcd CD database file
#
# Track frame offsets:
#	150
#	12565
#	24827
#	47967
#	63362
#	82847
#	93837
#	112127
#	127330
#	155362
#	170197
#	185675
#	206352
#	226727
#	245975
#	260730
#
# Disc length: 3713 seconds
#
# Revision: 0
# Processed by: cddbd v1.4PL0 Copyright (c) Steve Scherf et al.
# Submitted via: CDex 1.40Release
#
DISCID=e10e7f10
DTITLE=Hound Dog Taylor And The Houserockers - Natural Boogie and Beware Of The Dog!
DYEAR=1996
DGENRE=Blues
TTITLE0=Take Five
TTITLE1=Hawaiian Boogie
TTITLE2=See Me In The Evening
TTITLE3=You Can't Sit Down
TTITLE4=Sitting At Home Alone
TTITLE5=One More Time
TTITLE6=Roll Your Moneymaker
TTITLE7=Buster's Boogie
TTITLE8=Sadie
TTITLE9=Talk To Me Baby
TTITLE10=Goodnight Boogie
TTITLE11=Give Me Back My Wig
TTITLE12=The Sun Is Shining
TTITLE13=Kitchen Sink Boogie
TTITLE14=Dust My Broom
TTITLE15=Comin' Around The Mountain
EXTD=YEAR: 1996 ID3G: 0
EXTT0=
EXTT1=
EXTT2=
EXTT3=
EXTT4=
EXTT5=
EXTT6=
EXTT7=
EXTT8=
EXTT9=
EXTT10=
EXTT11=
EXTT12=
EXTT13=
EXTT14=
EXTT15=
PLAYORDER=
